<mxfile host="Electron" modified="2024-04-22T13:07:23.547Z" agent="Mozilla/5.0 (Windows NT 10.0; Win64; x64) AppleWebKit/537.36 (KHTML, like Gecko) draw.io/24.1.0 Chrome/120.0.6099.109 Electron/28.1.0 Safari/537.36" etag="kdTAAGAW553_gn_Pj57-" version="24.1.0" type="device">
  <diagram id="Vu79Qp-qQb7VmdpJE1IX" name="Page-1">
    <mxGraphModel dx="2421" dy="2038" grid="1" gridSize="10" guides="1" tooltips="1" connect="1" arrows="1" fold="1" page="1" pageScale="1" pageWidth="850" pageHeight="1100" math="0" shadow="0">
      <root>
        <mxCell id="0" />
        <mxCell id="1" parent="0" />
        <mxCell id="B7_tD5AyHdWsUrKpRjO4-1" value="loan" style="swimlane;childLayout=stackLayout;horizontal=1;startSize=50;horizontalStack=0;rounded=1;fontSize=14;fontStyle=0;strokeWidth=2;resizeParent=0;resizeLast=1;shadow=0;dashed=0;align=center;arcSize=4;whiteSpace=wrap;html=1;" parent="1" vertex="1">
          <mxGeometry x="40" y="390" width="160" height="170" as="geometry" />
        </mxCell>
        <mxCell id="B7_tD5AyHdWsUrKpRjO4-2" value="loan_id&lt;div&gt;start_date&lt;/div&gt;&lt;div&gt;end_date&lt;/div&gt;&lt;div&gt;amount&lt;/div&gt;&lt;div&gt;current status&lt;/div&gt;&lt;div&gt;deadline&lt;/div&gt;&lt;div&gt;history of deadline&lt;/div&gt;" style="align=left;strokeColor=none;fillColor=none;spacingLeft=4;fontSize=12;verticalAlign=top;resizable=0;rotatable=0;part=1;html=1;" parent="B7_tD5AyHdWsUrKpRjO4-1" vertex="1">
          <mxGeometry y="50" width="160" height="120" as="geometry" />
        </mxCell>
        <mxCell id="B7_tD5AyHdWsUrKpRjO4-3" value="Loan Request" style="swimlane;childLayout=stackLayout;horizontal=1;startSize=50;horizontalStack=0;rounded=1;fontSize=14;fontStyle=0;strokeWidth=2;resizeParent=0;resizeLast=1;shadow=0;dashed=0;align=center;arcSize=4;whiteSpace=wrap;html=1;" parent="1" vertex="1">
          <mxGeometry x="650" y="-10" width="160" height="160" as="geometry" />
        </mxCell>
        <mxCell id="B7_tD5AyHdWsUrKpRjO4-4" value="request_id&lt;div&gt;request date&lt;/div&gt;&lt;div&gt;total amount&lt;/div&gt;&lt;div&gt;payback period&lt;/div&gt;&lt;div&gt;description&lt;/div&gt;&lt;div&gt;status&lt;/div&gt;&lt;div&gt;&lt;br&gt;&lt;/div&gt;" style="align=left;strokeColor=none;fillColor=none;spacingLeft=4;fontSize=12;verticalAlign=top;resizable=0;rotatable=0;part=1;html=1;" parent="B7_tD5AyHdWsUrKpRjO4-3" vertex="1">
          <mxGeometry y="50" width="160" height="110" as="geometry" />
        </mxCell>
        <mxCell id="B7_tD5AyHdWsUrKpRjO4-5" value="Lender" style="swimlane;childLayout=stackLayout;horizontal=1;startSize=50;horizontalStack=0;rounded=1;fontSize=14;fontStyle=0;strokeWidth=2;resizeParent=0;resizeLast=1;shadow=0;dashed=0;align=center;arcSize=4;whiteSpace=wrap;html=1;" parent="1" vertex="1">
          <mxGeometry x="640" y="220" width="160" height="120" as="geometry" />
        </mxCell>
        <mxCell id="B7_tD5AyHdWsUrKpRjO4-6" value="name&lt;div&gt;email&lt;/div&gt;&lt;div&gt;contact&lt;/div&gt;&lt;div&gt;address&lt;/div&gt;" style="align=left;strokeColor=none;fillColor=none;spacingLeft=4;fontSize=12;verticalAlign=top;resizable=0;rotatable=0;part=1;html=1;" parent="B7_tD5AyHdWsUrKpRjO4-5" vertex="1">
          <mxGeometry y="50" width="160" height="70" as="geometry" />
        </mxCell>
        <mxCell id="B7_tD5AyHdWsUrKpRjO4-7" value="Borrower" style="swimlane;childLayout=stackLayout;horizontal=1;startSize=50;horizontalStack=0;rounded=1;fontSize=14;fontStyle=0;strokeWidth=2;resizeParent=0;resizeLast=1;shadow=0;dashed=0;align=center;arcSize=4;whiteSpace=wrap;html=1;" parent="1" vertex="1">
          <mxGeometry x="40" y="-10" width="160" height="120" as="geometry" />
        </mxCell>
        <mxCell id="B7_tD5AyHdWsUrKpRjO4-8" value="name&lt;div&gt;email&lt;/div&gt;&lt;div&gt;contact&lt;/div&gt;&lt;div&gt;address&lt;/div&gt;" style="align=left;strokeColor=none;fillColor=none;spacingLeft=4;fontSize=12;verticalAlign=top;resizable=0;rotatable=0;part=1;html=1;" parent="B7_tD5AyHdWsUrKpRjO4-7" vertex="1">
          <mxGeometry y="50" width="160" height="70" as="geometry" />
        </mxCell>
        <mxCell id="B7_tD5AyHdWsUrKpRjO4-9" value="Intermediary" style="swimlane;childLayout=stackLayout;horizontal=1;startSize=50;horizontalStack=0;rounded=1;fontSize=14;fontStyle=0;strokeWidth=2;resizeParent=0;resizeLast=1;shadow=0;dashed=0;align=center;arcSize=4;whiteSpace=wrap;html=1;" parent="1" vertex="1">
          <mxGeometry x="620" y="440" width="160" height="120" as="geometry" />
        </mxCell>
        <mxCell id="B7_tD5AyHdWsUrKpRjO4-10" value="name&lt;div&gt;address&lt;/div&gt;" style="align=left;strokeColor=none;fillColor=none;spacingLeft=4;fontSize=12;verticalAlign=top;resizable=0;rotatable=0;part=1;html=1;" parent="B7_tD5AyHdWsUrKpRjO4-9" vertex="1">
          <mxGeometry y="50" width="160" height="70" as="geometry" />
        </mxCell>
        <mxCell id="B7_tD5AyHdWsUrKpRjO4-11" value="Payment" style="swimlane;childLayout=stackLayout;horizontal=1;startSize=50;horizontalStack=0;rounded=1;fontSize=14;fontStyle=0;strokeWidth=2;resizeParent=0;resizeLast=1;shadow=0;dashed=0;align=center;arcSize=4;whiteSpace=wrap;html=1;" parent="1" vertex="1">
          <mxGeometry x="40" y="190" width="160" height="120" as="geometry" />
        </mxCell>
        <mxCell id="B7_tD5AyHdWsUrKpRjO4-16" value="payment_id&lt;div&gt;amount&lt;/div&gt;&lt;div&gt;date&lt;/div&gt;&lt;div&gt;status&lt;/div&gt;" style="text;html=1;align=center;verticalAlign=middle;resizable=0;points=[];autosize=1;strokeColor=none;fillColor=none;" parent="B7_tD5AyHdWsUrKpRjO4-11" vertex="1">
          <mxGeometry y="50" width="160" height="70" as="geometry" />
        </mxCell>
        <mxCell id="B7_tD5AyHdWsUrKpRjO4-17" value="" style="edgeStyle=entityRelationEdgeStyle;fontSize=12;html=1;endArrow=ERoneToMany;startArrow=ERzeroToMany;rounded=0;exitX=1;exitY=0.25;exitDx=0;exitDy=0;entryX=0;entryY=0.25;entryDx=0;entryDy=0;" parent="1" source="B7_tD5AyHdWsUrKpRjO4-8" target="B7_tD5AyHdWsUrKpRjO4-6" edge="1">
          <mxGeometry width="100" height="100" relative="1" as="geometry">
            <mxPoint x="200" y="160" as="sourcePoint" />
            <mxPoint x="390" y="180" as="targetPoint" />
            <Array as="points">
              <mxPoint x="210" y="60" />
              <mxPoint x="70" y="5" />
            </Array>
          </mxGeometry>
        </mxCell>
        <mxCell id="B7_tD5AyHdWsUrKpRjO4-20" value="" style="edgeStyle=elbowEdgeStyle;fontSize=12;html=1;endArrow=ERzeroToMany;startArrow=ERmandOne;rounded=0;entryX=0;entryY=0.143;entryDx=0;entryDy=0;entryPerimeter=0;exitX=0;exitY=0.25;exitDx=0;exitDy=0;" parent="1" source="B7_tD5AyHdWsUrKpRjO4-8" target="B7_tD5AyHdWsUrKpRjO4-16" edge="1">
          <mxGeometry width="100" height="100" relative="1" as="geometry">
            <mxPoint x="40" y="40" as="sourcePoint" />
            <mxPoint x="-10" y="249" as="targetPoint" />
            <Array as="points">
              <mxPoint y="150" />
            </Array>
          </mxGeometry>
        </mxCell>
        <mxCell id="B7_tD5AyHdWsUrKpRjO4-22" value="" style="edgeStyle=entityRelationEdgeStyle;fontSize=12;html=1;endArrow=ERzeroToMany;startArrow=ERmandOne;rounded=0;exitX=1;exitY=0.25;exitDx=0;exitDy=0;" parent="1" source="B7_tD5AyHdWsUrKpRjO4-7" edge="1">
          <mxGeometry width="100" height="100" relative="1" as="geometry">
            <mxPoint x="400" y="320" as="sourcePoint" />
            <mxPoint x="650" y="20" as="targetPoint" />
          </mxGeometry>
        </mxCell>
        <mxCell id="QiqwG_O9UMtqtu-N6ZYV-8" value="" style="edgeStyle=elbowEdgeStyle;fontSize=12;html=1;endArrow=ERoneToMany;startArrow=ERzeroToOne;rounded=0;entryX=1;entryY=0.5;entryDx=0;entryDy=0;" parent="1" source="B7_tD5AyHdWsUrKpRjO4-4" target="B7_tD5AyHdWsUrKpRjO4-6" edge="1">
          <mxGeometry width="100" height="100" relative="1" as="geometry">
            <mxPoint x="820" y="87" as="sourcePoint" />
            <mxPoint x="830" y="310" as="targetPoint" />
            <Array as="points">
              <mxPoint x="840" y="200" />
            </Array>
          </mxGeometry>
        </mxCell>
        <mxCell id="QiqwG_O9UMtqtu-N6ZYV-9" value="" style="edgeStyle=orthogonalEdgeStyle;fontSize=12;html=1;endArrow=ERzeroToOne;startArrow=ERmandOne;rounded=0;" parent="1" target="B7_tD5AyHdWsUrKpRjO4-2" edge="1">
          <mxGeometry width="100" height="100" relative="1" as="geometry">
            <mxPoint x="807" y="50" as="sourcePoint" />
            <mxPoint x="110" y="600" as="targetPoint" />
            <Array as="points">
              <mxPoint x="900" y="50" />
              <mxPoint x="900" y="620" />
              <mxPoint x="110" y="620" />
            </Array>
          </mxGeometry>
        </mxCell>
        <mxCell id="QiqwG_O9UMtqtu-N6ZYV-10" value="" style="edgeStyle=entityRelationEdgeStyle;fontSize=12;html=1;endArrow=ERzeroToOne;startArrow=ERmandOne;rounded=0;exitX=1;exitY=0.5;exitDx=0;exitDy=0;entryX=0;entryY=0.25;entryDx=0;entryDy=0;" parent="1" source="B7_tD5AyHdWsUrKpRjO4-2" target="B7_tD5AyHdWsUrKpRjO4-10" edge="1">
          <mxGeometry width="100" height="100" relative="1" as="geometry">
            <mxPoint x="490" y="310" as="sourcePoint" />
            <mxPoint x="590" y="210" as="targetPoint" />
          </mxGeometry>
        </mxCell>
        <mxCell id="QiqwG_O9UMtqtu-N6ZYV-14" value="" style="edgeStyle=orthogonalEdgeStyle;fontSize=12;html=1;endArrow=ERzeroToMany;startArrow=ERmandOne;rounded=0;exitX=0;exitY=0.25;exitDx=0;exitDy=0;entryX=0;entryY=0.25;entryDx=0;entryDy=0;" parent="1" edge="1">
          <mxGeometry width="100" height="100" relative="1" as="geometry">
            <mxPoint x="40" y="520" as="sourcePoint" />
            <mxPoint x="40" y="270" as="targetPoint" />
            <Array as="points">
              <mxPoint x="10" y="520" />
              <mxPoint x="10" y="270" />
            </Array>
          </mxGeometry>
        </mxCell>
        <mxCell id="QiqwG_O9UMtqtu-N6ZYV-16" value="" style="edgeStyle=entityRelationEdgeStyle;fontSize=12;html=1;endArrow=ERoneToMany;startArrow=ERzeroToMany;rounded=0;entryX=0;entryY=0.5;entryDx=0;entryDy=0;" parent="1" target="B7_tD5AyHdWsUrKpRjO4-6" edge="1">
          <mxGeometry width="100" height="100" relative="1" as="geometry">
            <mxPoint x="200" y="470" as="sourcePoint" />
            <mxPoint x="430" y="180" as="targetPoint" />
          </mxGeometry>
        </mxCell>
        <mxCell id="QiqwG_O9UMtqtu-N6ZYV-19" value="" style="edgeStyle=orthogonalEdgeStyle;fontSize=12;html=1;endArrow=ERzeroToOne;startArrow=ERmandOne;rounded=0;exitX=1;exitY=0.5;exitDx=0;exitDy=0;entryX=1;entryY=0.25;entryDx=0;entryDy=0;" parent="1" source="B7_tD5AyHdWsUrKpRjO4-10" target="B7_tD5AyHdWsUrKpRjO4-4" edge="1">
          <mxGeometry width="100" height="100" relative="1" as="geometry">
            <mxPoint x="410" y="310" as="sourcePoint" />
            <mxPoint x="870" y="60" as="targetPoint" />
            <Array as="points">
              <mxPoint x="860" y="525" />
              <mxPoint x="860" y="68" />
            </Array>
          </mxGeometry>
        </mxCell>
        <mxCell id="QiqwG_O9UMtqtu-N6ZYV-23" value="" style="edgeStyle=orthogonalEdgeStyle;fontSize=12;html=1;endArrow=ERzeroToMany;startArrow=ERmandOne;rounded=0;exitX=0;exitY=0.917;exitDx=0;exitDy=0;exitPerimeter=0;" parent="1" source="B7_tD5AyHdWsUrKpRjO4-2" edge="1">
          <mxGeometry width="100" height="100" relative="1" as="geometry">
            <mxPoint x="30" y="550" as="sourcePoint" />
            <mxPoint x="40" y="30" as="targetPoint" />
            <Array as="points">
              <mxPoint x="-20" y="550" />
              <mxPoint x="-20" y="30" />
            </Array>
          </mxGeometry>
        </mxCell>
      </root>
    </mxGraphModel>
  </diagram>
</mxfile>
